<?xml version="1.0" encoding="UTF-8"?>
<svg width="162px" height="179px" viewBox="0 0 162 179" version="1.1" xmlns="http://www.w3.org/2000/svg" xmlns:xlink="http://www.w3.org/1999/xlink">
    <title>Primary</title>
    <defs>
        <path d="M74.4777955,94.7675679 L121.469187,118.522649 C122.454958,119.020976 122.850109,120.224075 122.351783,121.209846 C122.159271,121.590665 121.850006,121.89993 121.469187,122.092441 L74.4777955,145.847523 C73.9061341,146.136509 73.2306401,146.134193 72.6609742,145.841292 L26.459354,122.086211 C25.477024,121.581135 25.0901333,120.375354 25.5952092,119.393024 C25.7860419,119.021871 26.0882005,118.719712 26.459354,118.52888 L72.6609742,94.7737983 C73.2306401,94.4808981 73.9061341,94.4785817 74.4777955,94.7675679 Z" id="path-1"></path>
        <filter x="-44.7%" y="-91.8%" width="189.4%" height="283.7%" filterUnits="objectBoundingBox" id="filter-2">
            <feOffset dx="0" dy="0" in="SourceAlpha" result="shadowOffsetOuter1"></feOffset>
            <feGaussianBlur stdDeviation="16" in="shadowOffsetOuter1" result="shadowBlurOuter1"></feGaussianBlur>
            <feColorMatrix values="0 0 0 0 1   0 0 0 0 0.533333333   0 0 0 0 0  0 0 0 0.4 0" type="matrix" in="shadowBlurOuter1"></feColorMatrix>
        </filter>
    </defs>
    <g id="页面-1" stroke="none" stroke-width="1" fill="none" fill-rule="evenodd">
        <g id="Primary" transform="translate(7, 0)" fill-rule="nonzero">
            <g id="Shade" fill="black" fill-opacity="1">
                <use filter="url(#filter-2)" xlink:href="#path-1"></use>
            </g>
            <path d="M72.6288363,57.3170203 C73.0908083,57.049116 73.6603784,57.0470301 74.1243003,57.3115435 L144.705121,97.5544737 C145.064954,97.7596391 145.307562,98.0912329 145.408921,98.4614936 C145.510279,98.8317543 145.470388,99.2406819 145.265223,99.6005152 C145.132081,99.8340292 144.938635,100.027475 144.705121,100.160617 L74.1243003,140.403547 C73.6603784,140.668061 73.0908083,140.665975 72.6288363,140.39807 L3.23424784,100.15514 C2.8759269,99.9473447 2.63575395,99.613983 2.53711011,99.2429898 C2.43846627,98.8719967 2.48135155,98.4633722 2.68914707,98.1050512 C2.82025708,97.8789662 3.00816279,97.6910604 3.23424784,97.5599504 Z" id="Outline" stroke="#FDAC42"></path>
            <path d="M21.9364184,29.3920539 L69.8995637,1.10889681 C72.4264357,-0.381162163 75.566168,-0.368731957 78.0811625,1.14128777 L125.118017,29.3825328 C127.526497,30.8286003 129,33.431995 129,36.2412451 L129,92.1572742 C129,95.0050005 127.486191,97.6380468 125.025186,99.0708752 L77.9891657,126.455839 C75.5204622,127.893149 72.4726795,127.905035 69.9928406,126.487024 L22.0288606,99.060455 C19.5374015,97.6357989 18,94.9856889 18,92.1156691 L18,36.2831571 C18,33.4513161 19.4971048,30.830481 21.9364184,29.3920539 Z" id="4" fill="#FFF8E6"></path>
            <path d="M26.990359,32.2462978 L69.490359,7.62996118 C71.9704631,6.19346524 75.0295369,6.19346524 77.509641,7.62996118 L120.009641,32.2462978 C122.479415,33.6768105 124,36.3147796 124,39.1689259 L124,88.4461648 C124,91.3003111 122.479415,93.9382802 120.009641,95.3687929 L77.509641,119.98513 C75.0295369,121.421625 71.9704631,121.421625 69.490359,119.98513 L26.990359,95.3687929 C24.5205849,93.9382802 23,91.3003111 23,88.4461648 L23,39.1689259 C23,36.3147796 24.5205849,33.6768105 26.990359,32.2462978 Z" id="3" fill="#FCCC75"></path>
            <path d="M82.0522539,56.3721661 L118.263063,38.9166057 C120.253056,37.9573222 122.643917,38.7928769 123.6032,40.7828694 C123.864369,41.3246533 124,41.9183584 124,42.5198059 L124,88.9509565 C124,91.7983633 122.486528,94.4311645 120.025959,95.8641073 L79.0129795,119.748523 C77.1039656,120.860261 74.6551624,120.213941 73.5434246,118.304927 C73.1875121,117.693774 73,116.999183 73,116.291948 L73,92.5486356 L73,92.5486356 L73,70.7849667 C73,64.6411858 76.5179357,59.0400055 82.0522539,56.3721661 Z" id="2" fill="#FDAC42"></path>
            <path d="M28.7583513,37.9148595 L64.6937359,55.5019937 C70.1812145,58.1876202 73.6603308,63.7637677 73.6603308,69.8731876 L73.6603308,111.070639 L73.6603308,111.070639 C73.6894272,113.684912 74.0031476,115.432034 74.6014921,116.312006 C75.3706952,117.443255 76.0749291,117.794239 77,118.307545 C77.6167139,118.649749 78.6167139,118.983083 80,119.307545 L77.6042803,120.566268 C75.1522744,121.854564 72.208331,121.782839 69.8219727,120.376662 L26.9386116,95.1073678 C24.4980577,93.6692559 23,91.0477212 23,88.2149717 L23,41.5076579 C23,39.2985189 24.790861,37.5076579 27,37.5076579 C27.6094856,37.5076579 28.2109116,37.646937 28.7583513,37.9148595 Z" id="1" fill="#FF8800"></path>
        </g>
    </g>
</svg>