<?xml version="1.0" encoding="UTF-8"?>
<svg width="111px" height="128px" viewBox="0 0 111 128" version="1.1" xmlns="http://www.w3.org/2000/svg" xmlns:xlink="http://www.w3.org/1999/xlink">
    <title>Primary</title>
    <g id="页面-1" stroke="none" stroke-width="1" fill="none" fill-rule="evenodd">
        <g id="Primary" fill-rule="nonzero">
            <path d="M3.93641837,29.3920539 L51.8995637,1.10889681 C54.4264357,-0.381162163 57.566168,-0.368731957 60.0811625,1.14128777 L107.118017,29.3825328 C109.526497,30.8286003 111,33.431995 111,36.2412451 L111,92.1572742 C111,95.0050005 109.486191,97.6380468 107.025186,99.0708752 L59.9891657,126.455839 C57.5204622,127.893149 54.4726795,127.905035 51.9928406,126.487024 L4.0288606,99.060455 C1.53740146,97.6357989 5.68054657e-15,94.9856889 5.32907052e-15,92.1156691 L-2.66453526e-15,36.2831571 C-5.52651584e-15,33.4513161 1.49710477,30.830481 3.93641837,29.3920539 Z" id="4" fill="#FFF8E6"></path>
            <path d="M8.990359,32.2462978 L51.490359,7.62996118 C53.9704631,6.19346524 57.0295369,6.19346524 59.509641,7.62996118 L102.009641,32.2462978 C104.479415,33.6768105 106,36.3147796 106,39.1689259 L106,88.4461648 C106,91.3003111 104.479415,93.9382802 102.009641,95.3687929 L59.509641,119.98513 C57.0295369,121.421625 53.9704631,121.421625 51.490359,119.98513 L8.990359,95.3687929 C6.5205849,93.9382802 5,91.3003111 5,88.4461648 L5,39.1689259 C5,36.3147796 6.5205849,33.6768105 8.990359,32.2462978 Z" id="3" fill="#FCCC75"></path>
            <path d="M64.0522539,56.3721661 L100.263063,38.9166057 C102.253056,37.9573222 104.643917,38.7928769 105.6032,40.7828694 C105.864369,41.3246533 106,41.9183584 106,42.5198059 L106,88.9509565 C106,91.7983633 104.486528,94.4311645 102.025959,95.8641073 L61.0129795,119.748523 C59.1039656,120.860261 56.6551624,120.213941 55.5434246,118.304927 C55.1875121,117.693774 55,116.999183 55,116.291948 L55,92.5486356 L55,92.5486356 L55,70.7849667 C55,64.6411858 58.5179357,59.0400055 64.0522539,56.3721661 Z" id="2" fill="#FDAC42"></path>
            <path d="M10.7583513,37.9148595 L46.6937359,55.5019937 C52.1812145,58.1876202 55.6603308,63.7637677 55.6603308,69.8731876 L55.6603308,111.070639 L55.6603308,111.070639 C55.6894272,113.684912 56.0031476,115.432034 56.6014921,116.312006 C57.3706952,117.443255 58.0749291,117.794239 59,118.307545 C59.6167139,118.649749 60.6167139,118.983083 62,119.307545 L59.6042803,120.566268 C57.1522744,121.854564 54.208331,121.782839 51.8219727,120.376662 L8.93861161,95.1073678 C6.49805766,93.6692559 5,91.0477212 5,88.2149717 L5,41.5076579 C5,39.2985189 6.790861,37.5076579 9,37.5076579 C9.60948557,37.5076579 10.2109116,37.646937 10.7583513,37.9148595 Z" id="1" fill="#FF8800"></path>
        </g>
    </g>
</svg>